PathFileType	4	(X/Y/Z)	C:/Users/beibeiliu/ov580/test_trc/User3\sequence.31_training_dense_right.trc
DataRate	CameraRate	NumFrames	NumMarkers	Units	OrigDataRate	OrigDataStartFrame	OrigNumFrames
120	120	20	19	mm	120	1	268
Frame#	Time	ThumbCMC			ThumbMCP			ThumbIP			ThumbTip			IndexMCP			IndexPIP			IndexTip			MiddleMCP			MiddlePIP			MiddleTip			RingMCP			RingPIP			RingTip			PinkyMCP			PinkyPIP			PinkyTip			BackHand1			BackHand2			BackHand3	
		X0	Y0	Z0	X1	Y1	Z1	X2	Y2	Z2	X3	Y3	Z3	X4	Y4	Z4	X5	Y5	Z5	X6	Y6	Z6	X7	Y7	Z7	X8	Y8	Z8	X9	Y9	Z9	X10	Y10	Z10	X11	Y11	Z11	X12	Y12	Z12	X13	Y13	Z13	X14	Y14	Z14	X15	Y15	Z15	X16	Y16	Z16	X17	Y17	Z17	X18	Y18	Z18	
0	0	199.981	20.3649	4.56128	176.065	24.454	-23.2751	155.351	5.10748	-43.188	144.753	-19.775	-36.9186	186.807	1.67767	-61.533	159.651	16.6223	-50.3878	167.36	13.205	-21.9613	178.302	-15.7483	-61.0254	149.772	-1.26554	-53.2239	161.986	-4.18577	-15.6716	172.779	-32.7388	-51.0447	143.956	-15.5848	-47.6935	154.289	-9.55867	-14.9214	156.558	-46.1756	-33.5623	143.538	-21.1921	-25.8776	162.097	-14.847	-5.82791	206.056	-45.3707	-3.41139	208.287	-42.8592	22.5578	221.503	-15.2151	3.95125	
1	0.00833333	198.75	16.3419	10.5855	175.476	28.82	-22.3504	155.113	6.60417	-39.4334	148.88	-19.3368	-31.743	188.723	0.271971	-57.8909	159.256	15.3695	-47.907	169.902	16.5091	-18.6712	177.573	-19.332	-58.8575	150.676	0.648176	-52.5683	161.506	-2.83856	-13.6861	168.606	-32.5649	-49.9755	143.594	-15.4657	-43.6188	154.802	-9.64247	-11.1152	157.587	-42.6498	-34.7558	141.02	-20.869	-26.755	154.271	-12.2823	-1.69545	203.66	-45.7436	-5.51429	208.778	-42.3339	27.3499	220.508	-14.6774	7.11604	
2	0.0166667	199.851	19.7634	7.39082	176.431	26.4965	-22.3517	158.04	6.29425	-36.7399	143.268	-15.8093	-38.859	186.062	-0.0539867	-58.5919	159.113	14.4593	-49.0689	169.473	12.6202	-18.8696	179.41	-15.8064	-57.1714	149.493	0.668937	-46.2716	164.524	-5.09158	-11.902	165.889	-33.378	-48.4374	144.815	-12.2866	-38.2628	155.891	-8.65613	-8.87279	157.195	-41.9958	-34.8094	140.21	-24.6936	-25.5682	155.448	-7.67571	-0.367591	205.263	-46.8431	-6.46274	210.899	-41.6044	26.0952	221.914	-13.4239	5.9168	
3	0.025	199.196	16.8422	1.46166	174.503	23.8478	-23.1842	153.855	-0.958539	-40.1853	144.575	-24.2297	-33.3401	189.285	1.18976	-58.5935	162.064	19.836	-47.2614	175.706	12.2918	-17.0756	179.975	-15.4284	-59.4375	152.412	5.31877	-48.2799	168.108	0.0236542	-12.6963	166.44	-25.5907	-50.0639	143.57	-13.7181	-37.5576	162.14	-4.8617	-7.57755	158.927	-41.0322	-36.1523	144.125	-17.457	-28.0959	166.306	-13.1087	-7.84642	203.428	-44.8338	-8.00238	208.168	-41.225	24.4731	223.112	-15.2401	0.775757	
4	0.0333333	201.603	17.909	3.26416	180.267	23.0224	-24.4227	157.273	9.03465	-40.8436	148.79	-16.723	-35.9414	190.304	1.97458	-57.06	160.363	15.3005	-44.5599	177.786	14.5701	-16.2456	175.062	-18.8087	-60.7578	150.981	0.917674	-49.6401	168.932	1.28827	-14.1379	166.143	-28.9032	-49.6743	145.518	-13.0436	-38.9372	161.523	-6.46014	-8.74027	154.614	-44.7035	-34.3452	141.351	-21.011	-26.5232	159.712	-7.05748	-7.07567	203.874	-49.3497	-6.96076	208.767	-41.5183	24.8017	221.401	-17.2863	1.21447	
5	0.0416667	202.927	20.1785	3.87459	173.829	20.1709	-23.8361	150.806	-2.32324	-36.5713	143.198	-25.4436	-29.8804	186.294	-3.07085	-58.0051	162.293	17.4729	-49.403	174.68	13.2146	-17.7134	173.092	-17.3099	-58.8007	151.211	3.14209	-46.3401	170.225	-0.202149	-10.6956	163.505	-31.1193	-43.7748	144.871	-11.7818	-34.6483	163.029	-4.40078	-5.86305	157.116	-42.6045	-31.6113	142.923	-20.7829	-23.8775	162.354	-11.3665	-5.0775	203.844	-45.8304	-5.59966	210.765	-42.212	24.8836	225.005	-16.7223	1.56823	
6	0.05	201.751	23.1501	2.30199	177.497	16.6216	-27.421	158.089	-6.89354	-40.2259	144.868	-22.7245	-48.509	192.161	-6.2267	-57.9496	166.485	14.3064	-53.3246	179.852	10.0291	-18.661	176.045	-18.4798	-56.4808	154.154	0.642323	-45.1722	171.797	2.48957	-8.4423	168.913	-30.9887	-43.0464	148.878	-9.86614	-32.7192	172.572	-1.36629	-6.14828	158.867	-42.07	-31.9861	146.542	-18.8604	-28.9935	166.441	-5.05371	-5.90481	203.668	-44.9047	2.05348	206.315	-37.941	32.1514	223.426	-13.3657	6.40002	
7	0.0583333	197.74	22.3297	7.89888	174.03	23.8046	-22.5362	159.215	-5.17062	-40.1969	153.968	-30.4976	-30.8101	199.729	3.61079	-54.138	167.33	16.7539	-47.3958	174.124	8.95921	-16.9	184.776	-18.5481	-55.5192	157.447	0.0615999	-45.5113	171.549	-1.31493	-10.7088	174.404	-27.6966	-46.1218	150.467	-10.3954	-34.2901	161.617	-0.113914	-5.63155	167.269	-39.3805	-31.8031	153.373	-18.0732	-23.8012	171.701	-7.50599	2.11598	212.183	-40.5988	-1.74709	208.464	-37.275	32.6031	225.208	-8.06915	7.46237	
8	0.0666667	202.528	17.7725	9.60143	182.505	27.82	-19.2704	162.043	6.3172	-40.3659	152.472	-19.8493	-33.1628	196.441	4.17427	-56.4889	166.184	17.7386	-46.8519	175.832	13.9952	-14.0905	188.266	-15.9488	-55.2277	159.489	1.47508	-50.9519	172.169	-0.422258	-9.21592	168.641	-29.827	-43.1249	150.899	-10.2164	-34.6739	167.391	-6.14243	-3.80469	159.165	-43.9219	-31.014	149.2	-18.8513	-30.8138	157.465	-1.05375	-6.05661	207.129	-47.9419	0.91083	209.903	-39.309	33.5378	222.505	-15.3057	11.2919	
9	0.075	205.37	21.1802	6.99663	184.159	27.6138	-20.9627	163.726	6.73615	-40.4052	153.63	-19.1654	-31.7955	194.267	0.061767	-56.7205	168.468	18.9708	-50.7868	174.736	12.3265	-17.9101	186.608	-17.1126	-55.4891	156.929	3.25614	-47.5324	166.234	5.01202	-12.2403	173.27	-28.0866	-41.7688	151.122	-5.42729	-29.9197	168.705	-3.41373	-1.29481	163.236	-43.467	-30.7446	146.977	-17.0514	-27.1697	161.514	-7.96448	-2.19518	207.401	-43.8966	0.259771	207.1	-44.502	31.9446	222.662	-17.4495	10.3535	
10	0.0833333	202.592	19.7516	9.67492	183.343	26.2759	-22.9362	162.894	9.0425	-41.1553	151.382	-20.2415	-35.9769	192.466	4.14345	-58.9615	164.901	13.9724	-48.3766	180.458	13.703	-15.6704	180.861	-18.0468	-55.1567	155.796	3.06406	-45.8953	171.716	-2.4628	-8.53433	165.86	-28.9195	-42.7292	148.946	-11.0333	-29.0078	172.021	-8.60808	-0.480972	160.592	-43.4816	-34.4105	148.658	-17.6612	-29.384	161.106	-9.40012	-2.93591	208.264	-44.8583	-5.12906	208.488	-40.2492	28.9026	223.907	-12.1238	6.30917	
11	0.0916667	203.77	20.2202	6.80787	182.732	27.0465	-18.5164	162.759	11.2309	-35.529	152.564	-14.3368	-32.3597	195.869	5.66998	-55.039	165.614	16.0116	-46.8159	178.711	13.787	-14.3339	184.783	-16.2802	-55.7116	155.884	1.61568	-48.7217	168.301	2.42015	-12.3365	172.3	-25.7689	-46.7638	148.372	-10.04	-36.3472	163.065	-1.29607	-8.50026	160.865	-42.387	-35.0673	146.696	-20.6172	-33.3079	156.459	-5.56142	-3.31635	204.701	-47.32	-3.60213	207.635	-43.2395	26.6333	222.68	-17.9274	5.39398	
12	0.1	203.796	21.8142	10.8144	182.705	28.2251	-22.234	163.526	5.30866	-37.9576	153.724	-17.4052	-33.3136	194.147	-0.416286	-54.4206	166.49	19.1749	-43.5559	179.702	11.9395	-13.8033	181.262	-18.6575	-54.0615	156.564	4.82867	-44.2417	171.401	1.2948	-9.21466	169.768	-25.7406	-45.8075	149.528	-9.2023	-31.2744	165.358	-4.3184	-4.34566	159.336	-45.2434	-33.5982	144.256	-24.0939	-30.9378	155.319	-7.70819	-5.83174	207.171	-42.7885	-4.48883	208.001	-42.1949	28.4184	224.106	-15.9935	7.09759	
13	0.108333	197.971	23.2566	2.42658	175.127	27.4945	-25.8682	156.642	2.22922	-42.9481	150.48	-24.4869	-33.9419	188.427	0.917418	-57.3776	159.746	14.4754	-46.534	173.089	9.86576	-16.5449	181.359	-16.888	-55.4565	152.34	-3.83418	-43.4182	170.732	-1.75697	-8.64359	168.711	-30.7853	-39.1615	149.642	-14.6803	-21.9272	171.653	-7.90143	1.8554	168.937	-46.7513	-29.9166	148.498	-26.6377	-22.263	170.215	-16.8592	-0.0366625	214.003	-38.3351	-1.61518	215.946	-30.9212	28.0793	224.135	-6.19288	1.83699	
14	0.116667	197.364	26.1022	3.34893	177.848	24.4201	-27.6226	162.657	2.59127	-46.4745	159.177	-27.9137	-37.3018	196.683	0.843167	-57.1515	166.454	12.4726	-52.1994	176.395	10.8021	-16.6608	186.294	-16.8746	-52.2582	155.272	-2.52654	-43.3757	157.802	4.99013	-9.25708	176.516	-27.2984	-42.3467	152.053	-16.2876	-25.7476	168.271	-7.16025	3.1395	171.793	-49.9189	-31.7215	154.036	-26.1299	-29.3473	164.898	-17.1278	-5.08497	213.343	-40.677	-1.5448	211.937	-31.9673	32.7517	225.618	-1.95999	9.52057	
15	0.125	203.536	21.3093	13.1729	185.195	31.3718	-20.0482	164.73	13.9029	-40.6894	152.797	-13.9797	-36.966	197.875	8.29671	-55.7663	168.859	21.9528	-45.1336	180.051	15.6102	-13.9733	183.861	-10.7111	-56.7571	157.043	8.70024	-51.388	150.15	12.5523	-11.3564	168.325	-23.0233	-44.3718	149.122	-6.16019	-29.0103	167.188	-2.02898	-2.70101	164.307	-37.0903	-34.0235	147.396	-14.8043	-27.3506	158.522	-8.59077	4.02497	207.408	-43.6182	-6.42002	206.64	-41.1498	30.2175	224.331	-13.1012	9.49759	
16	0.133333	195.139	27.9458	13.6466	178.397	32.6244	-17.683	167.561	16.6044	-42.61	158.833	-7.9283	-50.4898	200.055	12.654	-54.8309	169.815	19.9832	-53.4934	165.42	22.2631	-20.8424	192.286	-6.28231	-56.6626	161.669	0.173615	-55.4825	146.713	8.00405	-19.6848	183.727	-23.6077	-46.3984	153.908	-12.8379	-38.8405	151.891	-1.62349	-10.4768	171.558	-36.712	-35.7588	156.539	-15.8035	-25.0188	159.782	-5.98883	1.45902	216.242	-33.8688	-0.89028	213.113	-33.3701	29.4018	223.819	-0.619852	12.8175	
17	0.141667	195.338	26.5693	8.33356	174.072	36.7339	-19.7424	162.525	16.4123	-40.9988	158.713	-12.5785	-43.1253	196.491	20.6158	-55.6434	165.866	26.556	-46.6957	174.214	19.1485	-16.7669	190.61	-0.0150057	-57.5027	159.812	7.90063	-42.6458	173.572	4.0405	-11.0627	185.566	-16.1867	-49.7446	157.362	-6.24912	-39.6246	167.717	-1.17435	-5.01569	176.446	-31.1289	-39.6427	160.182	-12.0278	-25.969	169.051	-10.4264	1.83349	220.283	-32.7076	-9.4825	216.774	-33.2783	22.5177	224.727	0.760706	9.63408	
18	0.15	189.245	28.4806	14.7953	168.442	33.6042	-20.2043	166	9.85352	-46.0013	169.116	-15.1158	-41.328	201.244	32.7347	-48.9565	167.45	29.8043	-42.9157	175.987	22.841	-12.0414	198.167	13.7407	-54.1544	164.485	16.4575	-46.8173	174.796	7.51312	-8.46974	196.435	-5.4551	-51.676	161.927	-3.78942	-43.011	171.366	-0.507403	-12.2126	185.543	-21.1901	-45.4214	166.105	-9.70806	-30.5532	183.701	-6.52921	-6.01374	224.346	-23.3538	-7.10359	218.3	-27.8645	27.4655	224.65	10.8823	14.1656	
19	0.158333	174.387	30.1068	20.7518	160.005	33.0436	-16.2892	166.552	17.5125	-42.954	183.209	-7.8412	-49.0045	193	40.0575	-46.8598	163.267	30.2348	-47.9625	169.836	19.1993	-14.9837	198.356	25.2917	-54.2996	168.396	10.2111	-49.6711	172.745	6.83869	-13.8094	204.71	3.74482	-48.4212	174.915	-5.16031	-46.2465	176.397	-3.52838	-11.6568	202.984	-17.1071	-42.0215	178.344	-16.4774	-27.9873	190.602	-11.7728	-0.366367	229.412	3.17398	1.42232	226.097	-10.1342	27.1119	216.582	23.0877	23.0798	
